<?xml version="1.0" encoding="UTF-8" standalone="no"?>
<svg width="151px" height="35px" viewBox="0 0 151 35" version="1.1" xmlns="http://www.w3.org/2000/svg" xmlns:xlink="http://www.w3.org/1999/xlink" xmlns:sketch="http://www.bohemiancoding.com/sketch/ns">
    <!-- Generator: Sketch 3.5.1 (25234) - http://www.bohemiancoding.com/sketch -->
    <title>Group</title>
    <desc>Created with Sketch.</desc>
    <defs></defs>
    <g id="Page-1" stroke="none" stroke-width="1" fill="none" fill-rule="evenodd" sketch:type="MSPage">
        <g id="Group" sketch:type="MSLayerGroup">
            <path d="M29.6947697,8.38704167 L15.8967908,0.389958333 C15.4634898,0.137458333 14.9322396,0.137458333 14.4968635,0.389958333 L0.698884546,8.38704167 C0.265583598,8.63870833 -4.15039223e-05,9.10079167 -4.15039223e-05,9.602875 L-4.15039223e-05,25.599125 C-4.15039223e-05,26.0995417 0.265583598,26.5632917 0.698884546,26.8149583 L14.4740363,34.799125 C14.5587043,34.8495417 14.6471077,34.8899583 14.735511,34.922875 C14.7994271,34.9437083 14.8629281,34.961625 14.9243539,34.9732917 C15.0169076,34.992875 15.1073862,34.9999583 15.1978647,34.9999583 C15.4365123,34.9999583 15.6751598,34.9407917 15.8967908,34.812875 L16.5953018,34.406625 L16.5953018,31.165375 L16.5953018,29.0062083 L16.5953018,25.7657917 L16.5953018,21.606625 L16.5953018,18.411625 L22.9391763,14.7337083 L22.9391763,22.089125 L18.7286034,24.5287083 L18.7286034,27.7695417 L25.0355394,24.112875 C25.4688404,23.864125 25.7328053,23.3999583 25.7328053,22.8970417 L25.7328053,12.3037083 C25.7328053,11.801625 25.4688404,11.337875 25.0355394,11.087875 C24.6043137,10.8374583 24.0693281,10.8374583 23.6381024,11.087875 L14.4968635,16.3857917 C14.0656377,16.6357917 13.8000126,17.0987083 13.8000126,17.5999583 L13.8000126,28.1712083 C13.7983525,28.189125 13.7983525,28.2049583 13.8000126,28.224125 L13.8000126,31.165375 L2.79524766,24.7874583 L2.79524766,10.4124583 L15.1978647,3.22495833 L27.5984066,10.4124583 L27.5984066,24.7874583 L18.7286034,29.9307917 L18.7286034,33.1720417 L29.6947697,26.8149583 C30.1297308,26.5632917 30.3936958,26.0995417 30.3936958,25.599125 L30.3936958,9.602875 C30.3936958,9.10079167 30.1297308,8.63870833 29.6947697,8.38704167" id="Fill-1" fill="#1FBADA" sketch:type="MSShapeGroup"></path>
            <path d="M11.6669186,24.5287917 L7.45634564,22.0892083 L7.45634564,13.1142083 L15.1976572,8.62629167 L19.40657,11.0675417 L22.1997839,9.44420833 L15.8965833,5.79004167 C15.4636974,5.539625 14.9320321,5.539625 14.497071,5.79004167 L5.35998253,11.0879583 C4.92668158,11.3379583 4.65898129,11.8017083 4.65898129,12.3037917 L4.65898129,22.897125 C4.65898129,23.4000417 4.92668158,23.8637917 5.35998253,24.1129583 L11.6669186,27.7692083 L11.6669186,24.5287917 L11.6669186,24.5287917 Z" id="Fill-4" fill="#1FBADA" sketch:type="MSShapeGroup"></path>
            <path d="M51.5696926,11.2808895 L51.4630631,13.5755499 C51.4630631,13.5755499 49.3571305,13.3620932 48.3444042,13.3620932 C45.5720373,13.3620932 44.9322603,14.4827413 44.9322603,17.5511825 C44.9322603,20.9662369 45.4920652,22.1135671 48.3710616,22.1135671 C49.3837879,22.1135671 51.4897204,21.9001103 51.4897204,21.9001103 L51.5696926,24.2214528 C51.5696926,24.2214528 48.8772978,24.7017305 47.5180256,24.7017305 C43.41279,24.7017305 41.9999492,22.6738911 41.9999492,17.5511825 C41.9999492,12.775087 43.5993917,10.7739297 47.5713404,10.7739297 C48.9839273,10.7739297 51.5696926,11.2808895 51.5696926,11.2808895" id="Fill-1" fill="#FEFEFE" sketch:type="MSShapeGroup"></path>
            <path d="M62.4980226,17.6577584 C62.4980226,14.5626351 61.8315883,13.2287843 59.4857394,13.2287843 C57.1398905,13.2287843 56.47371,14.5626351 56.47371,17.6577584 C56.47371,20.7528817 57.0066036,22.2470792 59.4857394,22.2470792 C61.9648751,22.2470792 62.4980226,20.7528817 62.4980226,17.6577584 M65.4300798,17.6577584 C65.4300798,22.0869866 64.0705538,24.7018322 59.4857394,24.7018322 C54.9275823,24.7018322 53.5413989,22.0869866 53.5413989,17.6577584 C53.5413989,13.3352586 55.0339579,10.7740313 59.4857394,10.7740313 C63.9375208,10.7740313 65.4300798,13.3352586 65.4300798,17.6577584" id="Fill-4" fill="#FEFEFE" sketch:type="MSShapeGroup"></path>
            <path d="M76.299459,21.44654 L76.299459,13.5488933 C76.1395148,13.5222112 74.5933871,13.2820723 73.4740313,13.2820723 C71.5013856,13.2820723 70.6483496,14.7229056 70.6483496,17.7644106 C70.6483496,21.1797191 71.5811038,22.1135925 73.2072036,22.1135925 C74.726674,22.1135925 76.299459,21.44654 76.299459,21.44654 L76.299459,21.44654 L76.299459,21.44654 Z M79.2051128,24.4082529 L76.3258625,24.4082529 L76.3258625,23.7145183 C76.3258625,23.7145183 74.380382,24.7017559 72.7540283,24.7017559 C69.3418844,24.7017559 67.7160385,22.9140554 67.7160385,17.7644106 C67.7160385,12.935205 69.4487678,10.7739551 73.2605184,10.7739551 C74.3268133,10.7739551 76.1395148,11.0941403 76.299459,11.1208224 L76.299459,5.51783599 L79.2051128,5.51783599 L79.2051128,24.4082529 L79.2051128,24.4082529 Z" id="Fill-6" fill="#FEFEFE" sketch:type="MSShapeGroup"></path>
            <path d="M90.2471048,16.7239358 C90.2471048,14.0557261 89.4473836,13.1754709 87.5016491,13.1754709 C85.5287496,13.1754709 84.6493101,14.1624544 84.6226528,16.7239358 L90.2471048,16.7239358 L90.2471048,16.7239358 Z M92.5929537,21.9266907 L92.6462684,24.0879406 C92.6462684,24.0879406 89.6075817,24.7016289 87.2617328,24.7016289 C83.2631267,24.7016289 81.716999,22.5673152 81.716999,17.871266 C81.716999,12.9884421 83.8229315,10.7740822 87.5016491,10.7740822 C91.2334276,10.7740822 93.0994438,12.7218753 93.0994438,16.8840284 L92.9128422,18.965232 L84.6493101,18.965232 C84.6759675,21.0997998 85.4756887,22.1670837 87.6879969,22.1670837 C89.7939294,22.1670837 92.5929537,21.9266907 92.5929537,21.9266907 L92.5929537,21.9266907 L92.5929537,21.9266907 Z" id="Fill-8" fill="#FEFEFE" sketch:type="MSShapeGroup"></path>
            <path d="M97.2905669,13.4420886 L97.2905669,22.9409154 C97.7437422,23.0207076 99.156583,23.2608464 100.436137,23.2608464 C103.528138,23.2608464 104.594687,21.6601747 104.594687,17.5511317 C104.594687,13.6555454 103.421509,12.2413942 101.342488,12.2413942 C99.3431846,12.2413942 97.2905669,13.4420886 97.2905669,13.4420886 L97.2905669,13.4420886 L97.2905669,13.4420886 Z M95.7180357,11.067636 L97.2905669,11.067636 L97.2905669,12.0813016 C97.2905669,12.0813016 99.369842,10.800561 101.502432,10.800561 C104.834604,10.800561 106.247445,12.9084467 106.247445,17.5511317 C106.247445,22.7005224 104.621091,24.6749976 100.489452,24.6749976 C99.156583,24.6749976 97.7703996,24.4348587 97.2905669,24.3281303 L97.2905669,30.4116486 L95.7180357,30.4116486 L95.7180357,11.067636 L95.7180357,11.067636 Z" id="Fill-10" fill="#FEFEFE" sketch:type="MSShapeGroup"></path>
            <path d="M108.861517,5.14408333 L110.434049,5.14408333 L110.434049,24.4080496 L108.861517,24.4080496 L108.861517,5.14408333 L108.861517,5.14408333 Z" id="Fill-13" fill="#FEFEFE" sketch:type="MSShapeGroup"></path>
            <path d="M117.498126,18.0046511 C115.712082,18.1647437 115.045647,19.0185708 115.045647,20.6194966 C115.045647,22.3271509 115.792054,23.3141344 117.258209,23.3141344 C119.417203,23.3141344 121.843024,22.3805151 121.843024,22.3805151 L121.843024,17.5510554 L117.498126,18.0046511 L117.498126,18.0046511 Z M123.415809,22.1937404 C123.495781,22.9942033 124.268845,23.2607702 125.148538,23.3677527 L125.068566,24.6484934 C123.762101,24.6484934 122.776032,24.3814183 122.056283,23.5809554 C122.056283,23.5809554 119.550743,24.6751755 117.04495,24.6751755 C114.699101,24.6751755 113.39289,23.3141344 113.39289,20.6461787 C113.39289,18.1914258 114.619129,17.0174135 117.311524,16.7505925 L121.843024,16.2969968 L121.843024,15.0429382 C121.843024,13.0150988 120.936673,12.2415721 119.230601,12.2415721 C117.311524,12.2415721 114.192611,12.6415495 114.192611,12.6415495 L114.112639,11.3608088 C114.112639,11.3608088 117.04495,10.8007388 119.283916,10.8007388 C122.18957,10.8007388 123.415809,12.2146359 123.415809,15.0429382 L123.415809,22.1937404 L123.415809,22.1937404 Z" id="Fill-15" fill="#FEFEFE" sketch:type="MSShapeGroup"></path>
            <path d="M135.979835,11.1475299 L135.899863,12.5083169 C135.899863,12.5083169 133.793931,12.2414959 132.78095,12.2414959 C129.582065,12.2414959 128.649311,13.655647 128.649311,17.4978691 C128.649311,21.6867043 129.288834,23.234266 132.78095,23.234266 C133.793931,23.234266 135.953178,22.9941271 135.953178,22.9941271 L136.006239,24.3549141 C136.006239,24.3549141 133.633986,24.6750992 132.487719,24.6750992 C128.169225,24.6750992 126.996554,22.7539882 126.996554,17.4978691 C126.996554,12.6150452 128.542682,10.8006626 132.514377,10.8006626 C133.660898,10.8006626 135.979835,11.1475299 135.979835,11.1475299" id="Fill-16" fill="#FEFEFE" sketch:type="MSShapeGroup"></path>
            <path d="M147.435423,17.0708285 C147.435423,13.4687453 146.28941,12.1880046 143.783616,12.1880046 C141.357795,12.1880046 139.918551,13.5221095 139.918551,17.0708285 L147.435423,17.0708285 L147.435423,17.0708285 Z M148.501972,22.994 L148.555286,24.3014228 C148.555286,24.3014228 145.543003,24.6749722 143.463474,24.6749722 C139.491779,24.6482901 138.292197,22.2469013 138.292197,17.7912451 C138.292197,12.6416003 140.531417,10.8005355 143.783616,10.8005355 C147.222164,10.8005355 149.034865,12.6416003 149.034865,17.1241927 L148.98155,18.4049334 L139.918551,18.4049334 C139.918551,21.5531668 140.824648,23.2341389 143.623418,23.2341389 C145.569407,23.2341389 148.501972,22.994 148.501972,22.994 L148.501972,22.994 L148.501972,22.994 Z" id="Fill-17" fill="#FEFEFE" sketch:type="MSShapeGroup"></path>
            <path d="M128.85,27.08 L131.36,27.08 C132.04667,27.08 132.561665,27.2216652 132.905,27.505 C133.248335,27.7883347 133.42,28.2333303 133.42,28.84 C133.42,29.2733355 133.345001,29.6116654 133.195,29.855 C133.044999,30.0983345 132.823335,30.2899993 132.53,30.43 C133.263337,30.6833346 133.63,31.2266625 133.63,32.06 C133.63,32.7533368 133.446668,33.2499985 133.08,33.55 C132.713331,33.8500015 132.183337,34 131.49,34 L128.85,34 L128.85,27.08 Z M131.41,30.82 L129.62,30.82 L129.62,33.32 L131.46,33.32 C131.913336,33.32 132.258332,33.2250009 132.495,33.035 C132.731668,32.844999 132.85,32.5100024 132.85,32.03 C132.85,31.7766654 132.801667,31.5633342 132.705,31.39 C132.608333,31.2166658 132.480001,31.0933337 132.32,31.02 C132.026665,30.886666 131.723335,30.82 131.41,30.82 L131.41,30.82 Z M131.33,27.76 L129.62,27.76 L129.62,30.15 L131.4,30.15 C131.826669,30.15 132.138332,30.0483343 132.335,29.845 C132.531668,29.6416656 132.63,29.335002 132.63,28.925 C132.63,28.5149979 132.525001,28.2183342 132.315,28.035 C132.104999,27.8516657 131.776669,27.76 131.33,27.76 L131.33,27.76 Z M135.01,34 L135.01,27.08 L139.22,27.08 L139.22,27.76 L135.78,27.76 L135.78,30.15 L138.62,30.15 L138.62,30.82 L135.78,30.82 L135.78,33.32 L139.22,33.32 L139.22,34 L135.01,34 Z M139.82,27.77 L139.82,27.08 L144.82,27.08 L144.82,27.77 L142.71,27.77 L142.71,34 L141.95,34 L141.95,27.77 L139.82,27.77 Z M144.72,34 L146.62,27.08 L148.3,27.08 L150.2,34 L149.44,34 L148.94,32.22 L145.98,32.22 L145.48,34 L144.72,34 Z M147.2,27.74 L146.15,31.53 L148.77,31.53 L147.72,27.74 L147.2,27.74 Z" id="BETA" fill="#C4CDD5" sketch:type="MSShapeGroup"></path>
        </g>
    </g>
</svg>