<svg id="Layer_1" data-name="Layer 1" xmlns="http://www.w3.org/2000/svg" viewBox="0 0 223.35 61"><defs><style>.cls-1{fill:#6d6d6d;}.cls-2{fill:#fff;}</style></defs><title>hiring</title><rect id="Rectangle-4" class="cls-1" x="12" width="211.35" height="61" rx="3" ry="3"/><path id="WE_RE-HIRING" data-name="WE’RE-HIRING" class="cls-2" d="M31,21.31h3.27L37,37.78H37.6l3.63-16.41h3.63L48.5,37.78h0.62l2.74-16.47h3.27L51.35,40.46h-5l-3.3-15.35L39.78,40.46h-5ZM58,40.46V21.31H70.09V24h-9v5.42h7.3v2.68h-7.3v5.59h9v2.74H58ZM72.57,27.68l1.26-6.57H77l-2.12,6.57H72.57Zm10.65,6v6.82h-3.1V21.31h7.27q6.49,0,6.49,6.09,0,4.08-3.13,5.54l3.16,7.52H90.5l-2.77-6.82h-4.5Zm7.46-6.21q0-3.44-3.3-3.44H83.23v7h4.22a3,3,0,0,0,2.46-1,3.94,3.94,0,0,0,.78-2.56h0Zm6.71,13V21.31h12.08V24h-9v5.42h7.3v2.68h-7.3v5.59h9v2.74H97.4Zm33,0V32.18h-8.28v8.28H119V21.31h3.1v8.16h8.28V21.31h3.13V40.46h-3.13Zm7.52,0V21.31H141V40.46h-3.1Zm10.62-6.82v6.82h-3.1V21.31h7.27q6.49,0,6.49,6.09,0,4.08-3.13,5.54l3.16,7.52h-3.41L153,33.64h-4.5ZM156,27.43Q156,24,152.7,24h-4.17v7h4.22a3,3,0,0,0,2.46-1,3.94,3.94,0,0,0,.78-2.56h0Zm6.71,13V21.31h3.1V40.46h-3.1Zm7.52,0V21.31h5.42l5.82,16.41h0.42V21.31H185V40.46h-5.31l-6-16.44h-0.39V40.46h-3.1Zm27-7.33V30.39h5.45v9.73a24.51,24.51,0,0,1-3.06.42q-2.31.22-3.34,0.22-4.36,0-6-2.4t-1.65-7.53q0-5.13,1.69-7.48T196.15,21a31.25,31.25,0,0,1,5.54.56l1,0.2-0.11,2.46a46.76,46.76,0,0,0-6.07-.45q-2.68,0-3.68,1.51t-1,5.59q0,4.08.94,5.63t3.79,1.55a13.58,13.58,0,0,0,3-.25V33.13h-2.38Z"/><path id="Triangle-1" class="cls-1" d="M0,30.25L16.47,15V45.5L0,30.25H0Z"/></svg>